<svg width="19" height="20" viewBox="0 0 19 20" fill="none" xmlns="http://www.w3.org/2000/svg">
<path fill-rule="evenodd" clip-rule="evenodd" d="M12.7161 14.9737H5.49609C5.08209 14.9737 4.74609 14.6377 4.74609 14.2237C4.74609 13.8097 5.08209 13.4737 5.49609 13.4737H12.7161C13.1301 13.4737 13.4661 13.8097 13.4661 14.2237C13.4661 14.6377 13.1301 14.9737 12.7161 14.9737Z" fill="#F4BF3A"/>
<path fill-rule="evenodd" clip-rule="evenodd" d="M12.7161 10.7872H5.49609C5.08209 10.7872 4.74609 10.4512 4.74609 10.0372C4.74609 9.6232 5.08209 9.2872 5.49609 9.2872H12.7161C13.1301 9.2872 13.4661 9.6232 13.4661 10.0372C13.4661 10.4512 13.1301 10.7872 12.7161 10.7872Z" fill="#F4BF3A"/>
<path fill-rule="evenodd" clip-rule="evenodd" d="M8.25012 6.61041H5.49512C5.08112 6.61041 4.74512 6.27441 4.74512 5.86041C4.74512 5.44641 5.08112 5.11041 5.49512 5.11041H8.25012C8.66412 5.11041 9.00012 5.44641 9.00012 5.86041C9.00012 6.27441 8.66412 6.61041 8.25012 6.61041Z" fill="#F4BF3A"/>
<mask id="mask0_26_353" style="mask-type:alpha" maskUnits="userSpaceOnUse" x="0" y="0" width="19" height="20">
<path fill-rule="evenodd" clip-rule="evenodd" d="M0 0.000213623H18.1647V19.91H0V0.000213623Z" fill="white"/>
</mask>
<g mask="url(#mask0_26_353)">
<path fill-rule="evenodd" clip-rule="evenodd" d="M12.909 1.5L5.22 1.504C2.892 1.518 1.5 2.958 1.5 5.357V14.553C1.5 16.968 2.905 18.41 5.256 18.41L12.945 18.407C15.273 18.393 16.665 16.951 16.665 14.553V5.357C16.665 2.942 15.261 1.5 12.909 1.5ZM5.257 19.91C2.113 19.91 0 17.757 0 14.553V5.357C0 2.124 2.047 0.023 5.215 0.004L12.908 0H12.909C16.053 0 18.165 2.153 18.165 5.357V14.553C18.165 17.785 16.118 19.887 12.95 19.907L5.257 19.91Z" fill="#F4BF3A"/>
</g>
</svg>
