<svg width="25" height="25" viewBox="0 0 25 25" fill="none" xmlns="http://www.w3.org/2000/svg">
<path d="M8.375 22.25C8.97174 22.25 9.54403 22.0129 9.96599 21.591C10.3879 21.169 10.625 20.5967 10.625 20V15.5" stroke="white" stroke-width="2" stroke-linecap="round" stroke-linejoin="round"/>
<path d="M16.625 22.25C16.0283 22.25 15.456 22.0129 15.034 21.591C14.6121 21.169 14.375 20.5967 14.375 20V15.5" stroke="white" stroke-width="2" stroke-linecap="round" stroke-linejoin="round"/>
<path d="M14.75 15.5H16.25C16.8467 15.5 17.419 15.7371 17.841 16.159C18.2629 16.581 18.5 17.1533 18.5 17.75V18.5C18.5 19.0967 18.7371 19.669 19.159 20.091C19.581 20.5129 20.1533 20.75 20.75 20.75" stroke="white" stroke-width="2" stroke-linecap="round" stroke-linejoin="round"/>
<path d="M10.25 15.5H8.75C8.15326 15.5 7.58097 15.7371 7.15901 16.159C6.73705 16.581 6.5 17.1533 6.5 17.75V18.5C6.5 19.0967 6.26295 19.669 5.84099 20.091C5.41903 20.5129 4.84674 20.75 4.25 20.75" stroke="white" stroke-width="2" stroke-linecap="round" stroke-linejoin="round"/>
<path d="M6.54797 7.69098C6.28571 7.0124 6.17894 6.28364 6.23554 5.55835C6.29214 4.83306 6.51065 4.12968 6.87501 3.5C7.69373 3.49953 8.49937 3.70543 9.21748 4.09868C9.93558 4.49192 10.543 5.05981 10.9836 5.74989V5.75H14.0164V5.74989C14.457 5.05981 15.0644 4.49192 15.7825 4.09868C16.5006 3.70543 17.3063 3.49953 18.125 3.5C18.4894 4.12968 18.7079 4.83306 18.7645 5.55835C18.8211 6.28364 18.7143 7.0124 18.452 7.69098V7.69098C18.973 8.44253 19.2515 9.33554 19.25 10.25V11C19.25 12.1935 18.7759 13.3381 17.932 14.182C17.0881 15.0259 15.9435 15.5 14.75 15.5H10.25C9.05653 15.5 7.91194 15.0259 7.06803 14.182C6.22411 13.3381 5.75001 12.1935 5.75001 11V10.25C5.74854 9.33554 6.027 8.44253 6.54797 7.69098L6.54797 7.69098Z" stroke="white" stroke-width="2" stroke-linecap="round" stroke-linejoin="round"/>
</svg>
