<svg width="17" height="20" viewBox="0 0 17 20" fill="none" xmlns="http://www.w3.org/2000/svg">
<path fill-rule="evenodd" clip-rule="evenodd" d="M8.25098 6.5C7.28598 6.5 6.50098 7.285 6.50098 8.251C6.50098 9.216 7.28598 10 8.25098 10C9.21598 10 10.001 9.216 10.001 8.251C10.001 7.285 9.21598 6.5 8.25098 6.5ZM8.25098 11.5C6.45898 11.5 5.00098 10.043 5.00098 8.251C5.00098 6.458 6.45898 5 8.25098 5C10.043 5 11.501 6.458 11.501 8.251C11.501 10.043 10.043 11.5 8.25098 11.5Z" fill="#F4BF3A"/>
<mask id="mask0_26_344" style="mask-type:alpha" maskUnits="userSpaceOnUse" x="0" y="0" width="17" height="20">
<path fill-rule="evenodd" clip-rule="evenodd" d="M0 0H16.4995V19.5H0V0Z" fill="white"/>
</mask>
<g mask="url(#mask0_26_344)">
<path fill-rule="evenodd" clip-rule="evenodd" d="M8.24902 1.5C4.52702 1.5 1.49902 4.557 1.49902 8.313C1.49902 13.092 7.12302 17.748 8.24902 17.996C9.37502 17.747 14.999 13.091 14.999 8.313C14.999 4.557 11.971 1.5 8.24902 1.5ZM8.24902 19.5C6.45502 19.5 -0.000976562 13.948 -0.000976562 8.313C-0.000976562 3.729 3.70002 0 8.24902 0C12.798 0 16.499 3.729 16.499 8.313C16.499 13.948 10.043 19.5 8.24902 19.5Z" fill="#F4BF3A"/>
</g>
</svg>
