<svg width="103" height="58" viewBox="0 0 103 58" fill="none" xmlns="http://www.w3.org/2000/svg">
<path d="M5.89844 45.3047C4.88281 45.3307 4.04948 45.1484 3.39844 44.7578C2.72135 44.3672 2.20052 43.7943 1.83594 43.0391C1.44531 42.3099 1.19792 41.4115 1.09375 40.3438C0.989583 39.3021 0.989583 38.1562 1.09375 36.9062C1.22396 35.9427 1.45833 34.9401 1.79688 33.8984C2.08333 33.013 2.52604 32.0365 3.125 30.9688C3.69792 29.901 4.47917 28.8594 5.46875 27.8438C5.67708 27.8958 5.84635 27.9609 5.97656 28.0391C6.10677 28.0911 6.21094 28.1562 6.28906 28.2344C6.36719 28.3385 6.41927 28.4297 6.44531 28.5078C6.4974 28.7943 6.41927 29.1198 6.21094 29.4844C6.0026 29.849 5.79427 30.2396 5.58594 30.6562C5.01302 31.8542 4.58333 32.987 4.29688 34.0547C4.01042 35.1224 3.82812 36.112 3.75 37.0234C3.69792 37.8047 3.71094 38.5078 3.78906 39.1328C3.84115 39.7839 3.93229 40.3307 4.0625 40.7734C4.19271 41.2422 4.33594 41.5938 4.49219 41.8281C4.64844 42.0885 4.79167 42.2188 4.92188 42.2188C5.05208 42.2188 5.18229 42.1276 5.3125 41.9453C5.46875 41.763 5.61198 41.5417 5.74219 41.2812C5.89844 41.0208 6.08073 40.6172 6.28906 40.0703C6.4974 39.5495 6.71875 38.9375 6.95312 38.2344C7.1875 37.5312 7.40885 36.776 7.61719 35.9688C7.85156 35.1354 8.0599 34.3021 8.24219 33.4688C8.60677 31.8021 8.9974 29.9271 9.41406 27.8438C9.83073 25.7344 10.4427 23.5339 11.25 21.2422C11.5104 20.2786 11.8359 19.224 12.2266 18.0781C12.5391 17.0885 12.9297 15.9427 13.3984 14.6406C13.8932 13.3125 14.4531 11.8802 15.0781 10.3438C15.0781 10.2135 15.1823 10.0964 15.3906 9.99219C15.625 9.86198 15.8854 9.73177 16.1719 9.60156C16.4844 9.47135 16.8359 9.34115 17.2266 9.21094C17.7474 9.02865 18.151 8.92448 18.4375 8.89844C18.75 8.8724 18.9844 8.91146 19.1406 9.01562C19.2969 9.11979 19.401 9.26302 19.4531 9.44531C19.5052 9.60156 19.5312 9.78385 19.5312 9.99219C19.5833 10.8516 19.6094 11.6589 19.6094 12.4141C19.6354 13.1693 19.6615 13.8333 19.6875 14.4062C19.7135 15.0833 19.7266 15.6953 19.7266 16.2422C19.7526 16.9714 19.7135 17.9479 19.6094 19.1719C19.5052 20.3698 19.388 21.6328 19.2578 22.9609C19.1536 24.2891 19.0495 25.5911 18.9453 26.8672C18.8672 28.1172 18.8542 29.1589 18.9062 29.9922C18.9062 30.4349 18.9193 30.8516 18.9453 31.2422C18.9974 31.6068 19.0495 31.9714 19.1016 32.3359C19.4401 31.3984 19.8177 30.4219 20.2344 29.4062C20.651 28.3646 21.0677 27.375 21.4844 26.4375C21.901 25.474 22.2917 24.5885 22.6562 23.7812C23.0208 22.9479 23.3073 22.2578 23.5156 21.7109C23.8281 20.9818 24.2448 20.0573 24.7656 18.9375C25.2865 17.8177 25.8073 16.6979 26.3281 15.5781C26.875 14.4583 27.3698 13.4297 27.8125 12.4922C28.2812 11.5547 28.6198 10.9036 28.8281 10.5391C28.9844 10.2786 29.2448 10.0443 29.6094 9.83594C30 9.6276 30.4036 9.44531 30.8203 9.28906C31.263 9.13281 31.6667 9.02865 32.0312 8.97656C32.4219 8.89844 32.6823 8.88542 32.8125 8.9375C33.151 9.01562 33.3854 9.11979 33.5156 9.25C33.6719 9.38021 33.763 9.47135 33.7891 9.52344C33.8411 9.6276 33.8802 9.8099 33.9062 10.0703C33.9323 10.3047 33.9193 10.6823 33.8672 11.2031C33.8151 11.8281 33.6589 12.7786 33.3984 14.0547C33.1641 15.3307 32.8646 16.7891 32.5 18.4297C32.1615 20.0443 31.7839 21.776 31.3672 23.625C30.9766 25.474 30.599 27.2969 30.2344 29.0938C29.8698 30.8646 29.5443 32.5312 29.2578 34.0938C28.9974 35.6562 28.8281 36.9714 28.75 38.0391C28.6979 39.237 28.776 40.2917 28.9844 41.2031C29.0625 41.5938 29.1797 41.9714 29.3359 42.3359C29.4922 42.7005 29.7005 43.013 29.9609 43.2734C30.2214 43.5599 30.5339 43.7682 30.8984 43.8984C31.263 44.0286 31.6927 44.0677 32.1875 44.0156C31.5365 44.4583 30.8984 44.7839 30.2734 44.9922C29.6484 45.2005 29.0365 45.3047 28.4375 45.3047C27.7865 45.3307 27.2135 45.2266 26.7188 44.9922C26.224 44.7839 25.8073 44.4714 25.4688 44.0547C25.1302 43.6641 24.8828 43.1823 24.7266 42.6094C24.5703 42.0625 24.5182 41.4505 24.5703 40.7734C24.6224 40.1484 24.7917 39.1198 25.0781 37.6875C25.3646 36.2552 25.7031 34.6406 26.0938 32.8438C26.5104 31.0208 26.9531 29.1328 27.4219 27.1797C27.9167 25.2005 28.3724 23.3516 28.7891 21.6328C29.2318 19.888 29.6094 18.3906 29.9219 17.1406C30.2344 15.8906 30.4297 15.0703 30.5078 14.6797C30.5599 14.3672 30.599 14.0807 30.625 13.8203C30.6771 13.5339 30.7292 13.2865 30.7812 13.0781C30.5208 13.599 30.1953 14.224 29.8047 14.9531C29.4401 15.6823 29.0495 16.4635 28.6328 17.2969C28.2161 18.1302 27.7865 19.0026 27.3438 19.9141C26.9271 20.7995 26.5234 21.6589 26.1328 22.4922C25.4818 23.8464 24.8438 25.2396 24.2188 26.6719C23.5938 28.0781 23.0339 29.4193 22.5391 30.6953C22.0443 31.9714 21.6276 33.1172 21.2891 34.1328C20.9766 35.1484 20.7943 35.9297 20.7422 36.4766V37.0234C20.7422 37.1797 20.7422 37.362 20.7422 37.5703C20.7682 37.7786 20.8073 37.974 20.8594 38.1562L19.2969 39.3672C19.0625 39.4453 18.8542 39.5104 18.6719 39.5625C18.5156 39.6146 18.3594 39.6406 18.2031 39.6406C17.6042 39.6406 17.1484 39.3281 16.8359 38.7031C16.5234 38.1302 16.237 37.0104 15.9766 35.3438C15.7161 33.6771 15.638 31.6328 15.7422 29.2109C15.7943 28.013 15.8724 26.8021 15.9766 25.5781C16.1068 24.3542 16.224 23.1823 16.3281 22.0625C16.4583 20.9427 16.5755 19.901 16.6797 18.9375C16.7839 17.9479 16.8359 17.1016 16.8359 16.3984C16.862 15.8776 16.849 15.4089 16.7969 14.9922C16.7448 14.5495 16.6927 14.1458 16.6406 13.7812C16.4062 14.3802 16.1458 15.2005 15.8594 16.2422C15.5729 17.2578 15.2734 18.3906 14.9609 19.6406C14.6484 20.8906 14.3229 22.2057 13.9844 23.5859C13.6719 24.9661 13.3594 26.2943 13.0469 27.5703C12.7604 28.8464 12.487 30.0312 12.2266 31.125C11.9661 32.1927 11.7578 33.0521 11.6016 33.7031C11.3411 34.7448 11.0807 35.9297 10.8203 37.2578C10.5599 38.5859 10.2344 39.8359 9.84375 41.0078C9.45312 42.2057 8.94531 43.2083 8.32031 44.0156C7.69531 44.849 6.88802 45.2786 5.89844 45.3047ZM44.6094 23.625C44.9479 23.3646 45.2734 23.1693 45.5859 23.0391C45.9245 22.8828 46.224 22.7786 46.4844 22.7266C46.7708 22.6484 47.0573 22.6224 47.3438 22.6484C48.0469 22.7005 48.4766 22.9219 48.6328 23.3125C48.8151 23.7031 48.8411 24.3281 48.7109 25.1875C48.6328 25.6302 48.4766 26.1901 48.2422 26.8672C48.0078 27.5443 47.7344 28.3776 47.4219 29.3672C47.1094 30.3307 46.7708 31.4375 46.4062 32.6875C46.0677 33.9375 45.7422 35.3438 45.4297 36.9062C45.1172 38.1823 44.7786 39.6536 44.4141 41.3203C44.1016 42.7786 43.724 44.5365 43.2812 46.5938C42.8646 48.651 42.4089 51.0078 41.9141 53.6641C41.7839 54.3151 41.4974 54.6927 41.0547 54.7969C40.638 54.901 40.1953 54.849 39.7266 54.6406C39.5443 54.5365 39.375 54.4193 39.2188 54.2891C39.0885 54.1589 38.9453 54.0026 38.7891 53.8203C38.6328 53.6641 38.5026 53.4427 38.3984 53.1562C38.9974 50.9688 39.5182 48.9766 39.9609 47.1797C40.4297 45.3828 40.8464 43.8203 41.2109 42.4922C41.6016 40.9557 41.9661 39.5755 42.3047 38.3516C42.4349 37.8047 42.5521 37.2708 42.6562 36.75C42.7865 36.2031 42.9167 35.6693 43.0469 35.1484C42.7083 35.6953 42.3438 36.2161 41.9531 36.7109C41.5625 37.2057 41.1328 37.6354 40.6641 38C40.1953 38.3646 39.6875 38.638 39.1406 38.8203C38.6198 39.0286 38.0729 39.0938 37.5 39.0156C36.0938 38.8333 35.0911 38.3125 34.4922 37.4531C33.9193 36.5938 33.6719 35.474 33.75 34.0938C33.776 33.5469 33.8542 32.9479 33.9844 32.2969C34.1146 31.6458 34.2578 31.0208 34.4141 30.4219C34.5703 29.8229 34.7135 29.2891 34.8438 28.8203C35 28.3255 35.1172 27.974 35.1953 27.7656C35.5078 26.776 35.7292 25.9297 35.8594 25.2266C36.0156 24.5234 35.9115 23.9375 35.5469 23.4688C35.9115 23.2344 36.25 23.0781 36.5625 23C36.901 22.8958 37.2005 22.8177 37.4609 22.7656C37.7474 22.7396 38.0339 22.7396 38.3203 22.7656C39.0234 22.8698 39.4271 23.1302 39.5312 23.5469C39.6615 23.9635 39.6224 24.5885 39.4141 25.4219C39.3099 25.8646 39.1406 26.4375 38.9062 27.1406C38.6719 27.8177 38.4245 28.5208 38.1641 29.25C37.9036 29.9792 37.6693 30.6562 37.4609 31.2812C37.2526 31.8802 37.1354 32.3099 37.1094 32.5703C36.875 33.7422 36.862 34.6536 37.0703 35.3047C37.2786 35.9297 37.7344 36.2422 38.4375 36.2422C38.776 36.2422 39.1536 36.099 39.5703 35.8125C39.987 35.5 40.4036 35.0964 40.8203 34.6016C41.263 34.1068 41.6927 33.5469 42.1094 32.9219C42.526 32.2708 42.9036 31.6198 43.2422 30.9688C43.6068 30.3177 43.9193 29.6797 44.1797 29.0547C44.4661 28.4297 44.6745 27.8698 44.8047 27.375C44.987 26.4115 45.1042 25.6562 45.1562 25.1094C45.2083 24.5625 45.026 24.0677 44.6094 23.625ZM59.1406 45.6172C57.8646 45.6172 56.7188 45.2786 55.7031 44.6016C54.6875 43.9505 53.8281 43.0521 53.125 41.9062C52.4219 40.7604 51.901 39.4323 51.5625 37.9219C51.25 36.4115 51.1328 34.8099 51.2109 33.1172C51.3151 31.3203 51.5885 29.4714 52.0312 27.5703C52.474 25.6432 53.0729 23.7682 53.8281 21.9453C54.5833 20.1224 55.4557 18.3906 56.4453 16.75C57.4609 15.1094 58.5677 13.6771 59.7656 12.4531C60.9896 11.2292 62.2917 10.2656 63.6719 9.5625C65.0521 8.83333 66.4974 8.46875 68.0078 8.46875C68.9974 8.46875 69.8307 8.71615 70.5078 9.21094C71.1849 9.70573 71.7057 10.3568 72.0703 11.1641C72.4609 11.9453 72.7083 12.8307 72.8125 13.8203C72.9167 14.8099 72.9036 15.7995 72.7734 16.7891C72.6693 17.7526 72.4479 18.6901 72.1094 19.6016C71.7969 20.487 71.4062 21.2161 70.9375 21.7891C70.3385 22.5443 69.7917 22.9479 69.2969 23C68.8281 23.026 68.3724 22.8828 67.9297 22.5703C67.7474 22.4141 67.5651 22.2318 67.3828 22.0234C67.2005 21.8411 67.0052 21.6198 66.7969 21.3594C66.5885 21.0729 66.3672 20.7214 66.1328 20.3047C66.6276 20.1224 67.0833 19.8229 67.5 19.4062C67.9167 18.9635 68.2682 18.4688 68.5547 17.9219C68.8672 17.375 69.1016 16.8021 69.2578 16.2031C69.4401 15.5781 69.5443 14.9661 69.5703 14.3672C69.5964 13.8984 69.5833 13.4427 69.5312 13C69.4792 12.5312 69.375 12.1276 69.2188 11.7891C69.0625 11.4245 68.8411 11.138 68.5547 10.9297C68.2943 10.6953 67.9557 10.5781 67.5391 10.5781C66.4974 10.5781 65.4818 10.9818 64.4922 11.7891C63.5026 12.5703 62.5651 13.625 61.6797 14.9531C60.8203 16.2552 60.013 17.7526 59.2578 19.4453C58.5286 21.138 57.8906 22.8828 57.3438 24.6797C56.7969 26.4766 56.3542 28.2474 56.0156 29.9922C55.6771 31.737 55.4688 33.3255 55.3906 34.7578C55.2865 36.5547 55.3516 38.013 55.5859 39.1328C55.8203 40.2526 56.1328 41.125 56.5234 41.75C56.9401 42.401 57.3828 42.8307 57.8516 43.0391C58.3203 43.2734 58.75 43.3906 59.1406 43.3906C59.8698 43.3906 60.6901 43.0521 61.6016 42.375C62.513 41.6979 63.3854 40.7734 64.2188 39.6016C65.0521 38.4557 65.7943 37.1276 66.4453 35.6172C67.1224 34.1068 67.6042 32.5182 67.8906 30.8516C67.2396 30.8516 66.5755 30.8646 65.8984 30.8906C65.2474 30.8906 64.6224 30.9036 64.0234 30.9297C63.4245 30.9557 62.8906 30.9948 62.4219 31.0469C61.9531 31.0729 61.5885 31.112 61.3281 31.1641C61.1458 31.0859 61.0156 30.9948 60.9375 30.8906C60.8854 30.7865 60.8333 30.6693 60.7812 30.5391C60.7292 30.4349 60.7031 30.3047 60.7031 30.1484C60.7031 29.9922 60.7292 29.849 60.7812 29.7188C60.8333 29.5885 60.8984 29.4583 60.9766 29.3281C61.0547 29.1719 61.1589 29.0156 61.2891 28.8594C62.1224 28.7031 62.9427 28.5729 63.75 28.4688C64.5573 28.3646 65.3906 28.2865 66.25 28.2344C67.1354 28.1562 68.0729 28.1042 69.0625 28.0781C70.0781 28.026 71.2109 27.987 72.4609 27.9609C72.9818 27.9349 73.2943 28 73.3984 28.1562C73.5286 28.3125 73.4896 28.7031 73.2812 29.3281C73.125 29.8229 72.9167 30.2266 72.6562 30.5391C72.4219 30.8516 72.0182 30.9818 71.4453 30.9297C71.263 30.9297 71.1198 30.9167 71.0156 30.8906C70.7812 32.4271 70.2865 34.0547 69.5312 35.7734C68.776 37.4922 67.8516 39.0807 66.7578 40.5391C65.6641 41.9974 64.4531 43.2083 63.125 44.1719C61.8229 45.1354 60.4948 45.6172 59.1406 45.6172ZM83.6719 14.9922C83.5938 15.2786 83.4375 15.5651 83.2031 15.8516C82.9948 16.112 82.7474 16.3333 82.4609 16.5156C82.2005 16.6719 81.9271 16.776 81.6406 16.8281C81.3542 16.8802 81.1198 16.8281 80.9375 16.6719C80.3906 16.2552 80.1042 15.8125 80.0781 15.3438C80.0521 14.849 80.1693 14.3932 80.4297 13.9766C80.6901 13.5339 81.0156 13.1693 81.4062 12.8828C81.7969 12.5703 82.1354 12.388 82.4219 12.3359C82.7083 12.2839 82.9427 12.349 83.125 12.5312C83.3333 12.6875 83.4896 12.9089 83.5938 13.1953C83.6979 13.4557 83.75 13.7552 83.75 14.0938C83.776 14.4323 83.75 14.7318 83.6719 14.9922ZM78.2812 23.3125C78.4115 23.1562 78.6589 23.026 79.0234 22.9219C79.388 22.8177 79.7656 22.7396 80.1562 22.6875C80.5469 22.6094 80.8984 22.5703 81.2109 22.5703C81.5495 22.5443 81.7448 22.5443 81.7969 22.5703C81.8229 22.5964 81.7578 22.8698 81.6016 23.3906C81.4453 23.9115 81.25 24.5234 81.0156 25.2266C80.7812 25.9297 80.5339 26.6589 80.2734 27.4141C80.013 28.1432 79.8177 28.7422 79.6875 29.2109C79.5573 29.6797 79.401 30.2135 79.2188 30.8125C79.0365 31.3854 78.8672 31.9583 78.7109 32.5312C78.5807 33.0781 78.4896 33.599 78.4375 34.0938C78.3854 34.5885 78.4245 34.9661 78.5547 35.2266C78.6849 35.5391 78.8281 35.7604 78.9844 35.8906C79.1406 35.9948 79.3099 36.0469 79.4922 36.0469C80.013 36.0469 80.6641 35.7604 81.4453 35.1875C82.2526 34.6146 83.0599 33.9375 83.8672 33.1562C84.7005 32.349 85.4688 31.5417 86.1719 30.7344C86.875 29.901 87.3958 29.237 87.7344 28.7422C87.9427 28.4818 88.151 28.3125 88.3594 28.2344C88.5938 28.1562 88.776 28.1693 88.9062 28.2734C89.0625 28.3776 89.1406 28.5469 89.1406 28.7812C89.1667 29.0156 89.0885 29.2891 88.9062 29.6016C88.4896 30.3307 87.8776 31.2031 87.0703 32.2188C86.263 33.2083 85.4036 34.1719 84.4922 35.1094C83.5807 36.0208 82.6823 36.8021 81.7969 37.4531C80.9375 38.1042 80.2344 38.4427 79.6875 38.4688C79.2448 38.4948 78.8021 38.4167 78.3594 38.2344C77.9427 38.0781 77.5521 37.8568 77.1875 37.5703C76.849 37.2578 76.5625 36.9062 76.3281 36.5156C76.0938 36.099 75.9635 35.6693 75.9375 35.2266C75.8594 34.5755 75.8594 33.6901 75.9375 32.5703C76.0156 31.4245 76.1589 30.2656 76.3672 29.0938C76.5755 27.8958 76.8359 26.763 77.1484 25.6953C77.487 24.6276 77.8646 23.8333 78.2812 23.3125ZM100.469 28.1172C100.573 27.9609 100.703 27.8698 100.859 27.8438C101.042 27.7917 101.185 27.8047 101.289 27.8828C101.393 27.9609 101.445 28.0911 101.445 28.2734C101.471 28.4557 101.406 28.7031 101.25 29.0156C100.729 30.0052 100.039 31.0729 99.1797 32.2188C98.3464 33.3646 97.4609 34.4453 96.5234 35.4609C95.5859 36.4505 94.6745 37.2708 93.7891 37.9219C92.9036 38.5729 92.1615 38.8984 91.5625 38.8984C90.7031 38.8984 89.987 38.7292 89.4141 38.3906C88.8411 38.0521 88.3854 37.6354 88.0469 37.1406C87.7344 36.6458 87.513 36.112 87.3828 35.5391C87.2526 34.9401 87.2135 34.3932 87.2656 33.8984C87.2917 33.4818 87.3828 32.7396 87.5391 31.6719C87.6953 30.5781 87.9036 29.3281 88.1641 27.9219C88.4245 26.4896 88.7109 24.9661 89.0234 23.3516C89.362 21.7109 89.7135 20.1354 90.0781 18.625C89.6354 18.6771 89.1927 18.7292 88.75 18.7812C88.3073 18.8333 87.9036 18.8594 87.5391 18.8594C86.7057 18.8594 85.9245 18.7682 85.1953 18.5859C84.4401 18.3776 83.8802 18.1823 83.5156 18C83.3073 17.8958 83.2161 17.7526 83.2422 17.5703C83.2682 17.362 83.3464 17.1667 83.4766 16.9844C83.6068 16.776 83.776 16.6068 83.9844 16.4766C84.1667 16.3203 84.3359 16.2422 84.4922 16.2422C84.987 16.2943 85.5208 16.3464 86.0938 16.3984C86.6667 16.4245 87.2917 16.4245 87.9688 16.3984C88.4635 16.3724 88.9323 16.3333 89.375 16.2812C89.8438 16.2292 90.2995 16.1641 90.7422 16.0859C91.0807 14.8359 91.4062 13.7552 91.7188 12.8438C92.0573 11.9062 92.3568 11.2552 92.6172 10.8906C92.6953 10.7604 92.8646 10.6562 93.125 10.5781C93.4115 10.474 93.7109 10.4089 94.0234 10.3828C94.3359 10.3307 94.6354 10.3307 94.9219 10.3828C95.2083 10.4089 95.4167 10.5 95.5469 10.6562C95.6771 10.8646 95.7292 11.3984 95.7031 12.2578C95.6771 13.1172 95.5339 14.2109 95.2734 15.5391C96.3672 15.5391 97.3307 15.6042 98.1641 15.7344C99.0234 15.8385 99.7526 15.9688 100.352 16.125C100.951 16.2552 101.432 16.3984 101.797 16.5547C102.161 16.6849 102.435 16.776 102.617 16.8281C102.799 16.8802 102.891 17.0104 102.891 17.2188C102.917 17.4271 102.878 17.6484 102.773 17.8828C102.695 18.0911 102.552 18.2734 102.344 18.4297C102.135 18.5859 101.901 18.638 101.641 18.5859C101.38 18.5599 101.081 18.5078 100.742 18.4297C100.43 18.3516 100.039 18.2865 99.5703 18.2344C99.1276 18.1823 98.5938 18.1302 97.9688 18.0781C97.3438 18.026 96.6146 18 95.7812 18C95.625 18 95.4427 18.013 95.2344 18.0391C95.0521 18.0391 94.8568 18.0391 94.6484 18.0391C94.5443 18.4557 94.4401 18.8724 94.3359 19.2891C94.2578 19.6797 94.1406 20.0964 93.9844 20.5391C93.6458 21.5807 93.2552 22.7135 92.8125 23.9375C92.4219 25.0052 91.9531 26.2292 91.4062 27.6094C90.8594 28.9896 90.2474 30.4609 89.5703 32.0234C89.4141 33.1432 89.4271 34.0026 89.6094 34.6016C89.8177 35.1745 90.0651 35.5911 90.3516 35.8516C90.6901 36.138 91.1068 36.2943 91.6016 36.3203C91.9922 36.3724 92.4609 36.2422 93.0078 35.9297C93.5807 35.5911 94.1667 35.1484 94.7656 34.6016C95.3646 34.0547 95.9635 33.4557 96.5625 32.8047C97.1875 32.1536 97.7604 31.5156 98.2812 30.8906C98.8021 30.2656 99.2578 29.7057 99.6484 29.2109C100.039 28.6901 100.312 28.3255 100.469 28.1172Z" fill="#002147"/>
</svg>
