<svg width="17" height="16" viewBox="0 0 17 16" fill="none" xmlns="http://www.w3.org/2000/svg">
<path fill-rule="evenodd" clip-rule="evenodd" d="M8.79192 1.75C8.71609 1.75 8.52942 1.77083 8.43026 1.96917L6.90859 5.01167C6.66776 5.4925 6.20359 5.82667 5.66692 5.90333L2.26026 6.39417C2.03526 6.42667 1.95859 6.59333 1.93526 6.66333C1.91442 6.73083 1.88109 6.9025 2.03609 7.05083L4.49942 9.4175C4.89192 9.795 5.07026 10.3392 4.97692 10.8717L4.39692 14.2133C4.36109 14.4225 4.49192 14.5442 4.55026 14.5858C4.61192 14.6325 4.77692 14.725 4.98109 14.6183L8.02692 13.0392C8.50692 12.7917 9.07859 12.7917 9.55692 13.0392L12.6019 14.6175C12.8069 14.7233 12.9719 14.6308 13.0344 14.5858C13.0928 14.5442 13.2236 14.4225 13.1878 14.2133L12.6061 10.8717C12.5128 10.3392 12.6911 9.795 13.0836 9.4175L15.5469 7.05083C15.7028 6.9025 15.6694 6.73 15.6478 6.66333C15.6253 6.59333 15.5486 6.42667 15.3236 6.39417L11.9169 5.90333C11.3811 5.82667 10.9169 5.4925 10.6761 5.01083L9.15276 1.96917C9.05442 1.77083 8.86776 1.75 8.79192 1.75ZM4.78942 15.9167C4.44526 15.9167 4.10359 15.8083 3.81109 15.595C3.30609 15.225 3.05859 14.6142 3.16609 13.9992L3.74609 10.6575C3.76776 10.5333 3.72526 10.4075 3.63359 10.3192L1.17026 7.9525C0.716922 7.51833 0.554422 6.87667 0.746089 6.28083C0.939422 5.67833 1.45109 5.2475 2.08192 5.1575L5.48859 4.66667C5.62026 4.64833 5.73359 4.5675 5.79026 4.4525L7.31276 1.40917C7.59359 0.848333 8.16026 0.5 8.79192 0.5C9.42359 0.5 9.99026 0.848333 10.2711 1.40917L11.7944 4.45167C11.8519 4.5675 11.9644 4.64833 12.0953 4.66667L15.5019 5.1575C16.1328 5.2475 16.6444 5.67833 16.8378 6.28083C17.0294 6.87667 16.8661 7.51833 16.4128 7.9525L13.9494 10.3192C13.8578 10.4075 13.8161 10.5333 13.8378 10.6567L14.4186 13.9992C14.5253 14.615 14.2778 15.2258 13.7719 15.595C13.2594 15.9708 12.5919 16.0217 12.0261 15.7267L8.98192 14.1492C8.86276 14.0875 8.72026 14.0875 8.60109 14.1492L5.55692 15.7275C5.31359 15.8542 5.05109 15.9167 4.78942 15.9167Z" fill="#ffffff"/>
</svg>
