<svg width="22" height="17" viewBox="0 0 22 17" fill="none" xmlns="http://www.w3.org/2000/svg">
<path fill-rule="evenodd" clip-rule="evenodd" d="M16.887 8.14651C16.519 8.14651 16.198 7.87551 16.145 7.50051C16.088 7.08951 16.373 6.71051 16.784 6.65351C17.824 6.50751 18.609 5.60551 18.611 4.55351C18.611 3.51051 17.863 2.62851 16.832 2.45951C16.424 2.39251 16.147 2.00651 16.214 1.59751C16.282 1.18851 16.665 0.914506 17.076 0.979506C18.834 1.26851 20.111 2.77251 20.111 4.55551C20.107 6.35051 18.766 7.89051 16.991 8.13951C16.956 8.14451 16.921 8.14651 16.887 8.14651Z" fill="#F4BF3A"/>
<mask id="mask0_26_294" style="mask-type:alpha" maskUnits="userSpaceOnUse" x="17" y="10" width="5" height="5">
<path fill-rule="evenodd" clip-rule="evenodd" d="M17.9785 10.0016H21.7725V14.5312H17.9785V10.0016Z" fill="white"/>
</mask>
<g mask="url(#mask0_26_294)">
<path fill-rule="evenodd" clip-rule="evenodd" d="M19.8618 14.5312C19.5598 14.5312 19.2748 14.3472 19.1608 14.0482C19.0128 13.6612 19.2078 13.2272 19.5948 13.0802C20.2728 12.8222 20.2728 12.5372 20.2728 12.4002C20.2728 11.9622 19.7158 11.6562 18.6178 11.4922C18.2088 11.4302 17.9258 11.0492 17.9868 10.6382C18.0478 10.2282 18.4278 9.95522 18.8408 10.0082C21.2638 10.3712 21.7728 11.5092 21.7728 12.4002C21.7728 12.9442 21.5588 13.9372 20.1288 14.4822C20.0408 14.5152 19.9508 14.5312 19.8618 14.5312Z" fill="#F4BF3A"/>
</g>
<path fill-rule="evenodd" clip-rule="evenodd" d="M10.8867 11.914C8.51073 11.914 5.67773 12.206 5.67773 13.596C5.67773 14.997 8.51073 15.291 10.8867 15.291C13.2627 15.291 16.0947 15 16.0947 13.613C16.0947 12.209 13.2627 11.914 10.8867 11.914ZM10.8867 16.791C9.22773 16.791 4.17773 16.791 4.17773 13.596C4.17773 10.414 9.22773 10.414 10.8867 10.414C12.5457 10.414 17.5947 10.414 17.5947 13.613C17.5947 16.791 12.7217 16.791 10.8867 16.791Z" fill="#F4BF3A"/>
<path fill-rule="evenodd" clip-rule="evenodd" d="M10.8864 1.5C9.1944 1.5 7.8184 2.877 7.8184 4.569C7.8154 5.389 8.1294 6.156 8.7044 6.735C9.2794 7.314 10.0454 7.635 10.8614 7.638L10.8864 8.388V7.638C12.5784 7.638 13.9554 6.262 13.9554 4.569C13.9554 2.877 12.5784 1.5 10.8864 1.5ZM10.8864 9.138H10.8594C9.6394 9.134 8.4964 8.656 7.6404 7.792C6.7824 6.929 6.3134 5.783 6.3184 4.566C6.3184 2.05 8.3674 0 10.8864 0C13.4064 0 15.4554 2.05 15.4554 4.569C15.4554 7.088 13.4064 9.138 10.8864 9.138Z" fill="#F4BF3A"/>
<path fill-rule="evenodd" clip-rule="evenodd" d="M4.88609 8.14651C4.85209 8.14651 4.81709 8.14451 4.78209 8.13951C3.00709 7.89051 1.66709 6.35051 1.66309 4.55751C1.66309 2.77251 2.94009 1.26851 4.69809 0.979511C5.11909 0.913511 5.49209 1.19051 5.56009 1.59751C5.62709 2.00651 5.35009 2.39251 4.94209 2.45951C3.91109 2.62851 3.16309 3.51051 3.16309 4.55551C3.16509 5.60551 3.95009 6.50851 4.98909 6.65351C5.40009 6.71051 5.68509 7.08951 5.62809 7.50051C5.57509 7.87551 5.25409 8.14651 4.88609 8.14651Z" fill="#F4BF3A"/>
<path fill-rule="evenodd" clip-rule="evenodd" d="M1.912 14.5312C1.823 14.5312 1.733 14.5152 1.645 14.4822C0.214 13.9362 0 12.9432 0 12.4002C0 11.5102 0.509 10.3712 2.933 10.0082C3.346 9.95619 3.724 10.2282 3.786 10.6382C3.847 11.0492 3.564 11.4302 3.155 11.4922C2.057 11.6562 1.5 11.9622 1.5 12.4002C1.5 12.5372 1.5 12.8212 2.179 13.0802C2.566 13.2272 2.761 13.6612 2.613 14.0482C2.499 14.3472 2.214 14.5312 1.912 14.5312Z" fill="#F4BF3A"/>
</svg>
