<svg width="20" height="20" viewBox="0 0 20 20" fill="none" xmlns="http://www.w3.org/2000/svg">
<mask id="mask0_191_326" style="mask-type:alpha" maskUnits="userSpaceOnUse" x="0" y="11" width="16" height="9">
<path fill-rule="evenodd" clip-rule="evenodd" d="M0 11.957H15.1838V19.0566H0V11.957Z" fill="white"/>
</mask>
<g mask="url(#mask0_191_326)">
<path fill-rule="evenodd" clip-rule="evenodd" d="M7.592 13.457C4.813 13.457 1.5 13.814 1.5 15.519C1.5 16.871 3.55 17.557 7.592 17.557C11.634 17.557 13.684 16.864 13.684 15.499C13.684 14.144 11.634 13.457 7.592 13.457ZM7.592 19.057C5.516 19.057 0 19.057 0 15.519C0 11.957 5.714 11.957 7.592 11.957C10.851 11.957 15.184 12.324 15.184 15.499C15.184 19.057 9.47 19.057 7.592 19.057Z" fill="#F4BF3A"/>
</g>
<path fill-rule="evenodd" clip-rule="evenodd" d="M7.59205 1.5C5.58705 1.5 3.95605 3.131 3.95605 5.135C3.95605 7.139 5.58705 8.77 7.59205 8.77H7.62305C8.58705 8.766 9.49505 8.387 10.1761 7.7C10.8581 7.015 11.2311 6.104 11.2271 5.138C11.2271 3.131 9.59605 1.5 7.59205 1.5ZM7.59205 10.27C4.76005 10.27 2.45605 7.966 2.45605 5.135C2.45605 2.304 4.76005 0 7.59205 0C10.4231 0 12.7271 2.304 12.7271 5.135C12.7331 6.499 12.2041 7.787 11.2401 8.757C10.2781 9.728 8.99305 10.265 7.62605 10.27H7.59205Z" fill="#F4BF3A"/>
<path fill-rule="evenodd" clip-rule="evenodd" d="M14.4827 9.1318C14.1147 9.1318 13.7937 8.8608 13.7407 8.4858C13.6837 8.0758 13.9687 7.6958 14.3787 7.6388C15.6267 7.4638 16.5687 6.3808 16.5707 5.1188C16.5707 3.8648 15.6727 2.8068 14.4377 2.6048C14.0287 2.5368 13.7517 2.1518 13.8187 1.7428C13.8857 1.3338 14.2727 1.0588 14.6797 1.1238C16.6447 1.4458 18.0707 3.1268 18.0707 5.1198C18.0667 7.1248 16.5697 8.8468 14.5877 9.1248C14.5527 9.1298 14.5177 9.1318 14.4827 9.1318Z" fill="#F4BF3A"/>
<mask id="mask1_191_326" style="mask-type:alpha" maskUnits="userSpaceOnUse" x="15" y="11" width="5" height="6">
<path fill-rule="evenodd" clip-rule="evenodd" d="M15.8457 11.4834H19.9795V16.4609H15.8457V11.4834Z" fill="white"/>
</mask>
<g mask="url(#mask1_191_326)">
<path fill-rule="evenodd" clip-rule="evenodd" d="M17.896 16.4609C17.593 16.4609 17.308 16.2759 17.195 15.9769C17.048 15.5899 17.243 15.1559 17.63 15.0099C18.48 14.6879 18.48 14.2949 18.48 14.1269C18.48 13.5599 17.809 13.1719 16.486 12.9749C16.076 12.9129 15.793 12.5309 15.854 12.1219C15.916 11.7119 16.305 11.4369 16.707 11.4899C19.413 11.8949 19.98 13.1479 19.98 14.1269C19.98 14.8559 19.665 15.8429 18.162 16.4119C18.075 16.4449 17.985 16.4609 17.896 16.4609Z" fill="#F4BF3A"/>
</g>
</svg>
